<svg xmlns="http://www.w3.org/2000/svg" width="247.661" height="55.507" viewBox="0 0 247.661 55.507"><g transform="translate(-1563.997 -54.417)"><g transform="translate(1747.654 54.417)"><path d="M587.973,34.25c.024.011.047.019.063.025l.44-1.055c-.054-.065-.117-.14-.178-.216a.564.564,0,0,1-.06-.081c-.09-.161-.166-.329-.268-.48s-.14-.347-.329-.427c-.012,0-.013-.035-.02-.054a1.234,1.234,0,0,0-.078-.21c-.163-.276-.326-.553-.5-.821a1.769,1.769,0,0,1-.329-1.169c.014-.139.006-.28.011-.419.007-.22.008-.441.029-.661.058-.624.126-1.248.187-1.872.013-.125-.012-.153-.139-.148a2.465,2.465,0,0,0-.32.029c-.054.008-.1.047-.157.053-.19.018-.382.02-.57.045a1.173,1.173,0,0,0-.258.1l-.172-.066-.147.042c-.276.161-.563.123-.789.27-.032.088-.061.171-.1.272-.051-.033-.1-.047-.113-.077-.03-.055-.063-.073-.118-.046a.1.1,0,0,0-.048.142c.017.041.027.085.04.127l-.048.018-.084-.2a1.285,1.285,0,0,0-.687.772l.134.1-.188.045c0,.245-.01.486-.012.727a.16.16,0,0,0,.072.137.306.306,0,0,1,.063.2c-.12.062-.052.164-.056.239a1.247,1.247,0,0,0,.222.745c.03.048.1.073.144.109a.276.276,0,0,0,.037.185,2.183,2.183,0,0,0,.276.379c.117.114.175.27.294.373a.908.908,0,0,1,.25.695c.02.261.043.521.065.779l.179.01a.467.467,0,0,0-.166.493.366.366,0,0,0,.054.2c.034.041.114.043.174.063.038.136-.124.116-.155.2-.031.161.139.359-.1.483.046.075.126.152-.007.208-.016.007-.019.051-.023.08a.877.877,0,0,1-.272.55c0,.081,0,.131-.01.179-.011.066-.052.135-.042.2a4.167,4.167,0,0,0,.418,1.386,7,7,0,0,0,1.76,2.1,2.4,2.4,0,0,0,.566.338,1.271,1.271,0,0,0,1.1-.075.5.5,0,0,0,.3-.577c-.049-.273-.068-.552-.1-.828a.816.816,0,0,0-.035-.122l-.2.014c-.049-.058-.132-.113-.066-.2s.168-.051.264.006l-.135-1.117c-.17.135-.158-.122-.276-.1l.14-.083c.016-.087-.154-.131-.009-.209l.094.089c-.02-.28-.038-.551-.057-.825-.123.084-.159-.051-.231-.06l.007-.241.183.135c.029-.184.064-.349.077-.515.007-.094.04-.206-.072-.28a.112.112,0,0,1-.035-.1C587.875,34.193,587.928,34.23,587.973,34.25Z" transform="translate(-583.166 16.065)" fill="#090909"/><path d="M606.51-9.577a2.718,2.718,0,0,0-.148.692c.113.017.212.027.307.049a.244.244,0,0,0,.286-.124,7.272,7.272,0,0,1,.851-1.015c.3-.312.588-.639.883-.959a.236.236,0,0,1,.063-.044c.087-.047.175-.09.259-.139s.16-.1.239-.152l.046.033a2.879,2.879,0,0,1-.1.385,3.306,3.306,0,0,1-.534.922,1.913,1.913,0,0,0-.161.251,9.337,9.337,0,0,1-.64,1.061.64.64,0,0,0-.14.462c.016.169.1.232.263.179a.774.774,0,0,0,.4-.271c.134-.185.276-.364.415-.545s.243-.374.4-.539a3.486,3.486,0,0,0,.187-.3c.074-.1.175-.18.251-.28.242-.318.478-.641.717-.962.042-.055.088-.108.136-.166l.4.153c-.2.479-.392.937-.578,1.381l.13.112c-.095.029-.166.023-.2.122-.095.268-.214.528-.325.791-.085.2-.172.4-.26.612l.413.387c.046-.056.079-.133.122-.139.125-.016.159-.11.206-.2a4.69,4.69,0,0,1,.716-1.109c.008-.008,0-.026.007-.04-.17-.121-.17-.121-.055-.276l.164.168c.012-.029.026-.067.045-.1a5.514,5.514,0,0,1,.255-.514c.334-.531.68-1.055,1.022-1.582a.234.234,0,0,1,.343-.105.833.833,0,0,1,.271.2,3.235,3.235,0,0,1,.391.558.885.885,0,0,0,.85.5c.242,0,.258-.007.351-.259-.126-.119-.25-.248-.387-.361a.286.286,0,0,1-.1-.281q.047-.4.08-.809a.394.394,0,0,0-.023-.185c-.147-.333-.294-.666-.456-.991-.068-.135-.147-.28-.318-.3l-.03-.161a.671.671,0,0,1-.029-.162,4.413,4.413,0,0,1,.276-1.266,8.153,8.153,0,0,1,.529-1.225c.232-.409.454-.824.683-1.235a1.369,1.369,0,0,1,.1-.139l.028.016-1.02,2.661.039.025c.124-.115.25-.225.369-.344.082-.082.135-.212.23-.255a2.046,2.046,0,0,0,.56-.481c.075-.075.1-.2.248-.206-.062-.1-.115-.06-.171-.027s-.108.081-.192.05c.23-.187.317-.284.466-.15a.608.608,0,0,1,.082-.1c.064-.054.142-.092.2-.149.214-.2.426-.4.63-.612a1.443,1.443,0,0,0,.154-.254c.029-.008.106-.007.145-.044.245-.237.482-.481.722-.723l-.02-.03-.253.061c.036-.087.051-.172.075-.175a2.371,2.371,0,0,1,.343.006c.358-.4.742-.818,1.124-1.241.086-.1.166-.2.25-.294.063-.073.085-.146.006-.22-.126-.015-.255.067-.4-.045.083-.03.142-.073.2-.067.125.016.267-.011.36.139a6.008,6.008,0,0,0,.447-.6c-.348-.031-.673-.061-1-.087a.361.361,0,0,0-.114.033l.184.216-.036.044c-.059-.027-.119-.053-.178-.082-.107-.052-.15-.03-.171.093a.587.587,0,0,0,0,.077c-.106-.024-.111-.077-.08-.148a.614.614,0,0,1,.405-.406c.094-.023.2-.04.184-.232.082.172.177.12.261.1a4.989,4.989,0,0,1,1.593-.132c.137.009.272.035.459.06l-.362.316c.17.178.342.369.528.545a1.243,1.243,0,0,0,.346.24c.478.207.962.4,1.444.6a.857.857,0,0,0,.113.029c.01-.245.02-.472.029-.7a22.564,22.564,0,0,1,.321-3.255c.028-.147.044-.294.066-.442l0,0c.022-.055.047-.111.066-.168q.113-.335.221-.67c.015-.045.027-.091.041-.141a.585.585,0,0,0-.1-.055c-.1-.029-.206-.059-.311-.078-.78-.144-1.569-.2-2.358-.272a2.13,2.13,0,0,0-1.025.113c-.154.064-.279.117-.288.281-.083-.022-.151-.042-.22-.057-.034-.007-.085.006-.1-.013-.079-.088-.165-.041-.255-.036-.2.012-.409.011-.614.014l0-.042,1.485-.438,0-.036-.769-.173a1.313,1.313,0,0,1-.112.2c-.025.03-.079.037-.12.054-.011-.034-.021-.068-.031-.1s-.01-.079-.022-.081c-.121-.02-.015-.12-.057-.166-.064-.018-.126-.038-.187-.051-.222-.043-.438-.208-.673-.038-.007,0-.025-.01-.039-.012-.169-.032-.252.055-.331.2a8,8,0,0,1-.6.983c-.29.375-.689.654-.985,1.032a3.485,3.485,0,0,1-.539.477.165.165,0,0,0-.06.22c.006.013-.011.037-.02.06l-.129-.041c-.166.139-.228.338-.367.489a8.4,8.4,0,0,0-.611.825c-.069.1-.136.195-.2.3-.025.04-.064.1-.049.13.076.135-.012.188-.107.226a.378.378,0,0,0-.246.338.364.364,0,0,1-.078.138,1.3,1.3,0,0,0-.1.13c-.065.127-.123.258-.184.387a.4.4,0,0,0-.047.384c.013.024-.007.066-.016.129-.161-.07-.188.051-.225.151s-.122.211-.089.345c.006.029-.031.072-.052.105a.863.863,0,0,0-.106.154c-.235.62-.473,1.239-.692,1.864a3.01,3.01,0,0,1-.3.638c-.1.156-.2.312-.306.465s-.206.292-.309.437a4.5,4.5,0,0,0-.319.455c-.087.162-.226.283-.317.438a.655.655,0,0,1-.281.253c-.6.306-1.189.618-1.787.922a1.31,1.31,0,0,0-.433.338,4.741,4.741,0,0,1-.951.918,2.935,2.935,0,0,0-.27.21.979.979,0,0,0-.113.155.635.635,0,0,0-.434.237.209.209,0,0,0,.108.354.483.483,0,0,0,.167.024.88.88,0,0,0,.536-.187q.658-.513,1.321-1.02a1.471,1.471,0,0,1,.131-.083l.038.028a.972.972,0,0,1-.09.2,1.78,1.78,0,0,1-.2.193l-.989.926.015.2-.193-.055-.783.922.157.055,0,.027Zm17.131-14.339c.016.091.028.155.039.218C623.57-23.765,623.57-23.77,623.641-23.916Z" transform="translate(-587.444 25.728)" fill="#090909"/><path d="M627.193.676c.154-.018.281.068.427.077.164.011.325.038.488.056s.341.033.511.049c.155.015.309,0,.467.011a1.894,1.894,0,0,0,1.5-.535.194.194,0,0,1,.073-.027.911.911,0,0,0,.155-.051c.187-.1.34-.244.541-.333a1.708,1.708,0,0,0,.6-.4.653.653,0,0,1,.209-.1c.066-.032.142-.051.181-.139l-.65.091c.053.175.045.187-.1.177-.047,0-.093-.011-.143-.018l-.009-.118a1.545,1.545,0,0,0-.453.041c-.144.06-.275-.009-.411.021a3.86,3.86,0,0,1-.447.045c-.148.015-.3.035-.445.048s-.3.02-.448.031-.292.025-.467.04l.135.214-.158.031-.056-.22-1.431.1c-.078.1.045.219-.084.3L627-.025l.01-.025.185.03a.33.33,0,0,0-.351-.2c-.14.016-.282.02-.422.03l-.86.06-.07.152-.211.037-.015-.122.18-.013a.912.912,0,0,0-.551.025,2.276,2.276,0,0,0,.484.266,2.412,2.412,0,0,0,1.007.249c.028,0,.059.026.086.043a.444.444,0,0,0,.414.083.323.323,0,0,1,.31,0C627.159.623,627.137.682,627.193.676Zm-.6-.354c.087-.033.151-.081.206-.073a2.758,2.758,0,0,0,.486-.059A.859.859,0,0,0,627.509.1c-.119.188-.15.374-.308.484L627.166.33C626.975.308,626.8.426,626.591.322Z" transform="translate(-590.862 21.115)" fill="#090909"/><path d="M629.741,7.951c.183-.038.148-.148.135-.245a1.659,1.659,0,0,1-.056-.371,3.026,3.026,0,0,0-.1-.841,3.767,3.767,0,0,0-.705-1.55c-.328-.466-.666-.926-1.006-1.384-.166-.223-.346-.436-.523-.649-.051-.06-.125-.1-.175-.161s-.072-.131-.116-.191-.119-.142-.18-.212-.121-.194-.2-.213c-.115-.027-.092-.117-.139-.171-.066-.074-.132-.15-.2-.222-.1-.1-.2-.2-.294-.3h0q-.5-.5-1-.994c-.008-.009-.026-.007-.031-.008l-.268.112c-.146-.158,0-.226.073-.305C624.93.22,624.917.19,624.9.19c-.138,0-.268-.082-.413-.015a.929.929,0,0,1-.288.069c-.1.011-.154.048-.139.165-.113-.091-.113-.091-.242-.048a.293.293,0,0,1-.038.011c-.265.046-.529.094-.794.134a.191.191,0,0,0-.154.13c-.015.036-.007.082-.021.119a.572.572,0,0,1-.068.105L622.715.6a.851.851,0,0,0-.171,0c-.577.127-1.152.26-1.73.385a.9.9,0,0,1-.228.041,2.07,2.07,0,0,0-.45.081l-.016.207-.14-.172c-.178.026-.178.026-.242.11-.228-.1-.445.06-.666.025.114-.156.387-.1.434-.356.063.082.126.07.208.035q.481-.21.967-.4c.158-.062.329-.1.484-.163s.348-.035.426-.23c0,0,.014,0,.02,0l.075.058.072-.173.075.135c.216-.062.419-.131.627-.177a.311.311,0,0,0,.268-.248L622.5-.293,622.443-.5l.463.109a.19.19,0,0,0,.072.254l.674-.156c.055-.013.134-.007.162-.041a.31.31,0,0,1,.361-.075L623.9-.684l-.067.144c-.169-.073-.1-.184-.107-.281-.084-.066-.172-.127-.25-.2a.775.775,0,0,0-.579-.242c-.01,0-.02-.018-.038-.037l.067-.121a.847.847,0,0,0-.228-.131c-.06-.011-.086-.015-.119-.076a.258.258,0,0,0-.3-.1c.066-.23-.185-.125-.228-.265l-.084.159a.487.487,0,0,0-.318-.418c-.088-.046-.178-.088-.263-.139-.374-.229-.741-.471-1.121-.687-.109-.062-.2-.2-.372-.139-.026.01-.111-.047-.109-.069.01-.125-.1-.13-.163-.171-.15-.1-.311-.175-.461-.272a.705.705,0,0,0-.438-.157.826.826,0,0,0-.086-.166.464.464,0,0,0-.126-.068l-.028.155c-.2-.029-.032-.167-.12-.269-.121-.088-.285-.2-.444-.322-.1-.077-.2-.163-.294-.248-.049-.043-.066-.093-.018-.127a.721.721,0,0,0,.184.024c.557-.082,1.114-.167,1.67-.259a.876.876,0,0,0,.22-.105c.108.122.25.042.383.015s.3.027.378-.1l.229.019.125-.175.128.139c.733-.111,1.488-.224,2.241-.34.2-.031.395-.062.587-.112.217-.056.409-.188.663-.1.118.042.277-.032.415-.055.027,0,.053-.038.076-.035a2.976,2.976,0,0,0,.865-.092c.812-.112,1.623-.24,2.434-.362l1.285-.2.065-.181c.033.01.062.01.072.024.105.14.241.1.383.081.674-.105,1.351-.2,2.026-.3.245-.038.488-.08.724-.119l.037-.167c.085.069.078.126.025.175a.285.285,0,0,1-.112.061c-.427.13-.834.312-1.258.452s-.833.3-1.25.442a.234.234,0,0,0-.163.176c-.09.33-.188.658-.281.988-.012.044-.018.091-.029.141.3-.046.3-.047.422-.274a.455.455,0,0,1,.064-.085c0-.006.022,0,.038,0l-.011.2c.072-.015.127-.022.179-.038.416-.127.831-.258,1.248-.382.334-.1.672-.191,1.007-.292.134-.041.288-.064.318-.247,0-.021.05-.035.094-.064l.022.19c.062-.038.116-.1.161-.095a1.738,1.738,0,0,0,.532-.069c.307-.055.614-.117.921-.182.1-.02.2-.057.315-.092.176.1.184.1.3-.1q.256-.433.507-.869c.033-.057.056-.121.09-.194l-.281-.042-.3-.042A5.248,5.248,0,0,0,637.14-9.38l-.147-.024.078-.175.09.118c.118-.055.016-.121.017-.145.069-.069.141-.11.165-.17q.16-.407.3-.824a2.008,2.008,0,0,0,.054-.325c-.188-.068-.19-.071-.165-.226.015-.093.026-.187.039-.284l.161.066-.012-.185c-.08-.041-.2-.024-.193-.174l.193-.028a7.049,7.049,0,0,0-.486-2.215l-.3.021a15.324,15.324,0,0,1,1.441-1.4c.075.057.135.106.2.15a.674.674,0,0,0,.548.117c.2-.047.237-.1.273-.3q.148-.821.308-1.638a2.112,2.112,0,0,1,.106-.307c.249-.03.461-.047.669-.085a.4.4,0,0,0,.325-.307c.041-.151.075-.3.1-.458.009-.051-.042-.132-.02-.155.11-.114.095-.265.134-.4a1.459,1.459,0,0,1,.369-.639,7.41,7.41,0,0,0,.561-.672.654.654,0,0,0,.13-.525c-.1-.547-.188-1.1-.287-1.643-.016-.088-.081-.168-.095-.257a1.842,1.842,0,0,0-.513-1.078c-.132-.13-.261-.263-.4-.389a6.936,6.936,0,0,0-2.355-1.488,3.938,3.938,0,0,0-2.965.03,3.25,3.25,0,0,0-1.688,1.508c-.263.514-.54,1.021-.8,1.537a.6.6,0,0,0-.056.285c.019.492.041.984.077,1.475a.378.378,0,0,1-.154.369,1.021,1.021,0,0,0-.3.41q-.676,1.455-1.364,2.905c-.018.038-.042.074-.063.111l-.031-.016q.624-1.678,1.251-3.359a1.461,1.461,0,0,0-.136-.1c-.528-.3-1.045-.615-1.587-.886a7.835,7.835,0,0,0-1.024-.368.528.528,0,0,0-.316-.02l.227.5-.031.02-.51-.377-.162.065.036-.164a3.568,3.568,0,0,1-.682-.785,1.624,1.624,0,0,0-.246-.294,2.5,2.5,0,0,0-1.278-.653,6.3,6.3,0,0,0-2.067-.02c-.531.059-1.064.1-1.6.135a2.478,2.478,0,0,1-.551-.053.3.3,0,0,1-.265-.183l.47-.095-.073-.18c.176-.088.136.13.259.152.117.06.206-.115.359-.082a.637.637,0,0,0,.426-.084,11.633,11.633,0,0,0-1.868-.851c-.338-.109-.344-.1-.5.218a.228.228,0,0,0,.015.256.408.408,0,0,1,.047.2,1.739,1.739,0,0,1-.018.229c-.137.082-.17-.085-.268-.147l-.131.4.164.085-.012.037-.191,0c-.046.165-.092.322-.133.48-.032.121-.079.244.047.369-.145.028-.164.126-.184.223,0,.023-.007.046-.011.068a2.786,2.786,0,0,1,.144,1.559l-.206-1.187a23.527,23.527,0,0,0-.311,2.377.183.183,0,0,0,.074.184c.122.086.241.179.37.256a3.3,3.3,0,0,0,1.25.446c.073-.071.067-.219.227-.168l-.068.2a4.588,4.588,0,0,0,.55.02.543.543,0,0,1,.517.179c.016.02.048.026.073.038.145.139.257.332.512.3-.014.193-.029.384-.041.575-.028.427-.078.853-.076,1.279,0,.571.034,1.142.074,1.711a10.744,10.744,0,0,1-.091,1.553.141.141,0,0,1-.031-.072c-.056-.439-.108-.878-.168-1.316-.024-.182-.082-.36-.1-.543-.012-.132.024-.269-.175-.322a.282.282,0,0,0,.093-.326c-.1-.431-.2-.861-.3-1.291a1.337,1.337,0,0,0-.077-.2l-.037.011-.1.381.12.075c-.051.107-.02.269-.2.248-.059.2-.111.381-.168.564a4.707,4.707,0,0,1-.188.568c-.076.168-.057.366-.183.511l.078.108-.032.03-.155-.108-.1.077c-.022-.117-.045-.218-.055-.32,0-.026.03-.064.057-.082a.731.731,0,0,1,.134-.057c0-.14,0-.276,0-.411s0-.271,0-.407-.014-.269-.015-.4a3.2,3.2,0,0,1,.011-.425c.015-.126-.059-.237-.009-.376a1.108,1.108,0,0,0-.018-.4l-.241-.033c-.054.188-.081.385-.313.415l-.045-.08-1.405,1.568c.06.057.1.108.048.186-.069.1-.157.063-.227.033l-1.05,1.2.122.223-.276-.057c-.25.334-.506.675-.757,1.021-.025.036-.011.1-.013.13a.926.926,0,0,0-.184.157c-.157.238-.3.483-.453.727-.043.07-.081.144-.139.247.661,0,1.284.048,1.928.06-.015-.041-.053-.046-.085-.063a.776.776,0,0,1-.1-.067c.046-.2.106-.24.316-.185l-.111.173c.088.217.088.217.406.21l-.1-.184.126-.093c.021.113.039.214.057.311.153.032.287.053.416.09s.249.089.373.134l0,.051c-.084.021-.168.046-.254.063-.174.033-.349.06-.523.092-.068.012-.137.015-.178.1a.18.18,0,0,1-.139.042c-.086-.13-.175-.028-.26-.01-.045.009-.087.035-.132.041-.083.011-.169,0-.251.018-.258.045-.516.1-.774.145-.609.117-1.218.231-1.827.352a.85.85,0,0,0-.259.092q-.921.525-1.835,1.058a.769.769,0,0,0-.1.086l3.253.042a.164.164,0,0,1-.121.062c-1.274.16-2.55.314-3.823.481a4.067,4.067,0,0,0-1.3.336,5.291,5.291,0,0,0-1.5,1.12c-.229.241-.44.5-.652.744.051.091.191.09.135.223l-.18-.139c-.08.1-.172.169-.133.276a.956.956,0,0,0-.176.182c-.076.141-.127.3-.2.439a2.807,2.807,0,0,0-.219.409,2.675,2.675,0,0,0-.164.423,2.47,2.47,0,0,1-.059.282c-.005.02-.025.037-.035.05l.191.079c-.057.047-.082.085-.111.088-.168.021-.2.153-.25.281-.221.595-.447,1.188-.665,1.784a.337.337,0,0,1-.223.231,7.747,7.747,0,0,0-1.731.891A7.663,7.663,0,0,0,603.995.829c-.4.487-.779.985-1.162,1.483a.736.736,0,0,0-.081.207,4.85,4.85,0,0,0-.36.361,4.254,4.254,0,0,0-.332.472,12.638,12.638,0,0,0-.8,1.678.3.3,0,0,0,.007.156.183.183,0,0,1-.106.2.186.186,0,0,0-.086.073c-.042.079-.073.165-.1.239l.148.136-.228.047c-.166.395-.328.782-.492,1.17q-.624,1.467-1.247,2.934a.99.99,0,0,0-.036.158.193.193,0,0,1-.02.064,1.911,1.911,0,0,0-.121.163c-.294.538-.582,1.079-.879,1.616a2.635,2.635,0,0,1-.225.3l-.039-.019c.347-1.674.7-3.345,1.045-5.039-.105.007-.175.009-.244.018a3.477,3.477,0,0,0-1.207.416.859.859,0,0,0-.534.619,2.02,2.02,0,0,1-.131.36c-.065.179-.128.36-.194.546l.134.033c-.173.066-.175.065-.238.244-.112.316-.224.631-.337.947a.963.963,0,0,1-.064.12l-.032-.01.058-.291-.229.016.064-.176.223.082c.034-.151.058-.29.1-.422.108-.367.227-.73.333-1.1.024-.085.1-.182,0-.273a.139.139,0,0,1,.043-.1c.123-.045.108-.139.122-.265l-.511.238.143.15c-.038.007-.056.017-.064.011-.052-.034-.1-.072-.168-.119l-.284.172c-.1.058-.194.113-.289.175s-.188.129-.281.2-.182.138-.27.21-.174.148-.259.225a1.918,1.918,0,0,1-.251.232c-.1.06-.088.182-.194.241s-.159.179-.25.257-.062.183-.17.245c-.09.051-.137.178-.2.273s-.122.192-.179.292-.109.2-.162.3-.1.2-.152.307-.1.207-.143.312-.087.207-.13.31l.211.083-.286.1c-.058.167-.126.34-.179.517a4.209,4.209,0,0,1-.926,1.647,1.308,1.308,0,0,0-.127.228.874.874,0,0,0-.188.117c-.181.175-.353.361-.531.545l.016.237-.219-.042c-.038.131-.193.113-.267.214a2.17,2.17,0,0,1-.292.281c-.091.085-.181.17-.272.256a.549.549,0,0,0,.162.03.142.142,0,0,1,.087.077.1.1,0,0,1-.037.088.276.276,0,0,1-.134.047,1.084,1.084,0,0,1-.188-.021l-.007-.108c-.047.039-.079.064-.109.092-.111.1-.269.183-.32.308-.07.175-.248.159-.345.276a2.366,2.366,0,0,1-.334.281c0,.054.007.11.012.166a3.725,3.725,0,0,1-.014.914c-.034.217-.086.432-.138.646a2.588,2.588,0,0,1-.164.564,3.522,3.522,0,0,0-.284.913c-.033.154.018.241.125.285a.283.283,0,0,0,.318-.1c.029-.034.084-.087.109-.079.119.039.193-.033.267-.093.254-.208.5-.421.754-.633.041-.034.079-.071.119-.107l.021.016-.1.206.113.056c-.206.073-.351.172-.233.415l-.138-.013c-.014.023-.026.041-.037.06a9.023,9.023,0,0,1-.579,1.045.48.48,0,0,0,.018.635c.191.292.373.588.565.879a3.112,3.112,0,0,0,.215.26,2.552,2.552,0,0,0,.166-.263,4.443,4.443,0,0,0,.393-1.35,1.541,1.541,0,0,1,.092-.415,6.658,6.658,0,0,1,.359-.7c.089-.152.232-.275.307-.431a.46.46,0,0,1,.29-.253,3.063,3.063,0,0,1,.529-.506,12.043,12.043,0,0,1,1.085-.639l.009,0-.013-.018c.328-.316.642-.613.951-.915a14.912,14.912,0,0,1,2.479-2.029c.3-.189.591-.4.881-.6l-.031-.157.029-.013.08.112a7.131,7.131,0,0,0,1.147-.857c.223-.21.452-.415.688-.612a.265.265,0,0,0,.12-.291.17.17,0,0,0,.232-.024c.144-.139.3-.265.441-.405a4.183,4.183,0,0,1,.883-.671c.185-.105.375-.2.56-.3l.016-.188.188.113c.379-.2.827-.239,1.232-.426l-.134-.164.272-.186.061.257c.107-.066.208-.126.307-.189a4.231,4.231,0,0,0,1.445-1.491c.236-.415.447-.845.67-1.267q.177-.336.358-.672l.031.012-.5,1.655a8.925,8.925,0,0,0,2.52-.882l-.1-.176.265.094c.167-.1.343-.192.51-.3.442-.289.874-.592,1.32-.875.734-.466,1.476-.921,2.213-1.383.061-.038.139-.063.178-.158a13.021,13.021,0,0,0-2.515,0,.952.952,0,0,1,.175-.111,6.851,6.851,0,0,1,2.1-.622C612,5,612.125,5,612.164,4.9c.135.017.247.038.36.044s.214-.011.321-.007a.52.52,0,0,0,.321-.091c.207-.139.423-.267.633-.4.045-.029.086-.066.139-.108l-.193-.192c-.086-.086-.174-.17-.258-.257s-.171-.129-.247-.221c-.22-.266-.481-.5-.727-.745l-.024.014.046.119c-.148,0-.188-.025-.178-.146a.3.3,0,0,0-.115-.257q-.572-.563-1.141-1.13L609.821.247l.22-.17-.014.253.3.191c.047-.094.06-.215.226-.182L610.438.6l2.149,1.392.2-.112-.092.171.236.153.126-.118c.063.1.063.1.03.219,1.328.825,2.65,1.666,4.03,2.424l.174-.139c-.024.249.121.343.291.431.215.11.417.25.635.353s.381.3.642.291c.008,0,.018.02.025.032a.711.711,0,0,0,.387.246.5.5,0,0,0,.439.052.443.443,0,0,1,.232-.015c.269.028.537.065.807.092a.4.4,0,0,0,.135-.038c.033.027.074.083.127.1.409.122.821.237,1.259.361.022-.034.047-.077.075-.116.009-.012.03-.014.063-.027l-.095.187c.272.011.471.246.745.126.075.165.157.19.3.148a1.56,1.56,0,0,0,.23.13c.37.128.745.243,1.113.374s.706.265,1.06.394a1.6,1.6,0,0,0,.226.049.533.533,0,0,1-.4.064c-.233-.03-.465-.072-.7-.111-.068-.011-.131-.042-.186.044-.019.029-.1.02-.157.031l.023-.135-.194-.051q-.849-.217-1.7-.435c-.111-.029-.219-.063-.316.077a.185.185,0,0,0-.241-.166c-.148.2-.148.2-.261.095l.21-.113-.37-.05-.159.17.022-.175a.27.27,0,0,0-.076-.013c-.034,0-.066.018-.1.025s-.072.023-.091.01c-.157-.106-.327-.042-.48-.059l-.109.175-.044-.017.011-.148a.418.418,0,0,0-.063-.006,4.947,4.947,0,0,0-2.4.678c-.148.087-.289.183-.435.274a3.289,3.289,0,0,0-1.11,1.106c-.076.126-.125.266-.208.445.108-.007.185-.037.215-.011.183.157.423.151.63.237.1.043.211.092.326,0a1.1,1.1,0,0,1-.108.223c-.034.05-.116.03-.153-.033a.715.715,0,0,1-.039-.09c-.154.029-.294.06-.435.079a2.843,2.843,0,0,1-1.333-.016,1.4,1.4,0,0,0-1.209.1.2.2,0,0,1-.1.021,3.65,3.65,0,0,0-.916.177c-.1.022-.193.053-.2.18a1.352,1.352,0,0,0-.513.022.272.272,0,0,0-.192.219,8.853,8.853,0,0,0-.2,1.74c0,.135-.02.269.111.356-.032.054-.085.1-.075.135.045.135.025.294.132.41.153-.094.227-.1.284-.019s.023.13-.139.254a11.937,11.937,0,0,1,.741,1.186,1.531,1.531,0,0,1-.8-.732c-.147-.311-.287-.625-.417-.944a7.027,7.027,0,0,1-.53-2.151c-.006-.077-.018-.152-.029-.252-.288.082-.553.161-.82.232-.086.024-.156.045-.188.144-.013.042-.082.065-.13.1l-.093-.128-1.27.338a3.067,3.067,0,0,0-.431.125,1.332,1.332,0,0,0-.858.818,1.023,1.023,0,0,0-.259.657.805.805,0,0,0,.051.524c.122.234.246.467.381.693.094.157.139.154.26.007.04.167.171.105.272.107s.245.043.3-.129l.128.144.112-.062c.133.044.229.085.329.107a19.961,19.961,0,0,1,2.672.762c.086.032.167.072.283.122-.064.031-.094.059-.122.057-.283-.013-.565-.037-.849-.046-.1,0-.208.041-.311.036s-.21-.055-.317-.061c-.219-.013-.437-.01-.617-.013-.04.069-.054.128-.083.138-.129.043-.105-.1-.148-.139a.313.313,0,0,0-.39.188,1.821,1.821,0,0,1,1.05,1.355l.228.033c-.189.154-.195.192-.1.38a.4.4,0,0,1,.036.135c.01.091.01.184.019.276.017.17.036.34.059.51.014.1.036.2.056.3a.194.194,0,0,0,.041.333c.034.011.063-.008.051.05a.127.127,0,0,0,.031.092c.092.114.185.229.284.337.284.309.568.619.859.92.135.139.265.3.5.271a.207.207,0,0,1,.149.1c.016.024-.037.091-.065.154.2.139.391.284.594.416a5.872,5.872,0,0,0,1.793.789.365.365,0,0,0,.356-.069c.136-.114.288-.211.419-.331a.712.712,0,0,0-.064-1.182,3.3,3.3,0,0,1-.65-.5.52.52,0,0,0-.152-.086c0-.13,0-.277-.235-.254a.283.283,0,0,0,.027-.419.16.16,0,0,1-.026-.056c-.05-.192-.1-.385-.148-.577-.02-.073-.031-.152-.117-.192-.018-.007-.008-.076-.011-.108l-.13-.059.1-.2c-.031-.115-.061-.247-.1-.376-.02-.064-.075-.119-.09-.184-.024-.108-.016-.223-.043-.33a4.172,4.172,0,0,1-.166-1.456,7.433,7.433,0,0,1,.218-1.38,3.527,3.527,0,0,1,.147-.4.588.588,0,0,1,.386-.343,8.2,8.2,0,0,1,1.339-.318l2.969-.362c.01,0,.018-.017.027-.026L619,12.411c.065-.058.111-.053.165.01.127.146.175.146.327.02a.27.27,0,0,1,.053-.033c.091.034.154.084.21.077q.787-.1,1.57-.21c.061-.009.114-.071.17-.108.03.015.074.062.109.055.341-.06.68-.126,1.019-.194.06-.012.128-.02.13-.112s.081-.079.14-.09c.1.132.164.133.248,0,.038-.06.072-.123.115-.179a.241.241,0,0,1,.235-.117c.13.02.091.134.108.217a1.141,1.141,0,0,0,.727-.415c.067.133.145.078.221.038l.235-.125a9.014,9.014,0,0,0-1.023.123.58.58,0,0,0-.174.1.171.171,0,0,0-.267,0,.153.153,0,0,1-.194.029.268.268,0,0,0-.3.032.1.1,0,0,1-.125.016.459.459,0,0,0-.184-.016c-.109,0-.219.015-.329.022a1,1,0,0,1,.272-.122.481.481,0,0,0,.275-.17c.064-.087.207.029.334,0a7.683,7.683,0,0,1,1.092-.288,8.909,8.909,0,0,0,.966-.183.746.746,0,0,0,.171-.086c.077.06.078.065.21.049a7.912,7.912,0,0,0,1.459-.175,3.428,3.428,0,0,0,.889-.072,1.444,1.444,0,0,0,.271-.077l-.189-.181.013-.206a.3.3,0,0,1,.181.366c.135-.08.241-.137.341-.2s.258-.127.3-.228c.06-.144.223-.069.272-.188a.175.175,0,0,1,.09-.088.811.811,0,0,0,.376-.363,2.341,2.341,0,0,0,.383-1.12A.228.228,0,0,0,629.741,7.951Zm7.82-28.242c.234-.072.469-.139.7-.208l1.356-.4c.069.1.206.178.29.3-.061.014-.1.025-.133.03-.709.1-1.418.207-2.126.313a2.258,2.258,0,0,0-.25.065l-.019-.023A1.442,1.442,0,0,1,637.56-20.291Zm-.15.609c.3-.077.6-.148.9-.222l1.82-.444.277.316c-.078.015-.123.027-.17.033q-1.357.176-2.713.353c-.108.015-.213.046-.32.071l-.023-.023A2.13,2.13,0,0,1,637.41-19.682Zm-3.848-.457a2.852,2.852,0,0,0,.033-.657c-.024-.336.055-.488.381-.55a1.973,1.973,0,0,1,.571-.026.519.519,0,0,1,.493.6,1.052,1.052,0,0,1-.028.19c-.016.068-.042.134-.073.23a1.224,1.224,0,0,1-.1-.126c-.095-.168-.189-.335-.277-.506a.186.186,0,0,0-.206-.113c-.189.018-.379.028-.588.042.018.7.034,1.374.051,2.045-.27.015-.377-.056-.422-.28a.617.617,0,0,1,0-.254C633.446-19.74,633.53-19.935,633.562-20.139Zm1.011.093c-.115.121-.241.232-.365.352a.39.39,0,0,1,.137-.606c.065-.039.126-.069.191,0S634.624-20.1,634.574-20.046Zm-1.5,2.361a7.2,7.2,0,0,1,.383-.9c-.033.3-.06.555-.087.808a1.678,1.678,0,0,0,.325,1.271c.291.369.585.736.879,1.1a.778.778,0,0,1,.1.139,4.852,4.852,0,0,1-1.439-1.266A1.194,1.194,0,0,1,633.073-17.685ZM622.414-7.036c.124-.053.256-.089.378-.146a.63.63,0,0,0,.141-.125.5.5,0,0,0,.177.01c.217-.069.428-.158.645-.226.1-.029.126-.078.1-.193a.876.876,0,0,0,.507-.024c1.16-.371,2.32-.743,3.49-1.082.656-.19,1.328-.326,2-.471a6,6,0,0,1,.925-.13c.137-.008.174-.144.289-.151a1.618,1.618,0,0,0,.206.126c.021.009.066-.038.084-.049l.586.219c-.345.161-.7.132-.991.321a.59.59,0,0,0-.174-.011c-.286.06-.57.129-.855.195-.02,0-.055.006-.059.017-.074.2-.209.1-.343.092a1.441,1.441,0,0,0-.4.078c-.527.123-1.056.242-1.581.375-.155.04-.3.092-.464.119-.469.077-.93.209-1.395.319l-.029.222-.139-.173a.223.223,0,0,0-.056,0q-1.394.327-2.788.658a2.283,2.283,0,0,0-.314.13C622.381-6.979,622.389-7.026,622.414-7.036Z" transform="translate(-584.064 25.721)" fill="#090909"/><path d="M627.626-21.861q.076.438.153.874c.022-.124.038-.249.062-.373A4.943,4.943,0,0,0,627.626-21.861Z" transform="translate(-591.366 25.015)" fill="#090909"/><path d="M657.378-2.065a.129.129,0,0,0-.125-.165,1.339,1.339,0,0,0-.318.014c-.224.04-.448.089-.67.143s-.425.117-.644.151c-.413.061-.8.224-1.212.3-.251.045-.5.129-.745.192-.066.017-.134.027-.2.039-.051-.2-.055-.2.087-.264a4.045,4.045,0,0,1,.481-.177c.3-.087.605-.161.9-.238.055-.065,0-.222.157-.177l.05.179.129-.227a.58.58,0,0,0,.553.038c.09-.024.182-.037.272-.061.151-.04.3-.081.451-.131a.473.473,0,0,0,.162-.1c.09-.082.15-.283.105-.351-.074-.11-.188-.107-.3-.1l-.038.214a.345.345,0,0,0-.426-.191,1.423,1.423,0,0,1-.434.071,2.66,2.66,0,0,0-.7.03c-.518.052-1.033.121-1.549.186a.553.553,0,0,0-.476.319,5.334,5.334,0,0,0-.25.679,4.191,4.191,0,0,1-.523,1.209,2.713,2.713,0,0,0-.174.243,1.856,1.856,0,0,0-.095.292c-.08-.081-.128-.044-.2.015a2.173,2.173,0,0,1-.654.4l.391-.394L651.22-.1l.253-.181.093.123.131-.175-.086-.143.2-.024.274-.595c-.064-.054-.19-.04-.095-.157l.12.042a1.491,1.491,0,0,0,.109-.583.522.522,0,0,1,.057-.259,2.092,2.092,0,0,1,.174-.263c-.084-.2.127-.111.178-.18.063-.086.129-.169.192-.254.015-.021.021-.059.041-.067.13-.053.137-.17.158-.282a3.507,3.507,0,0,1,.07-.356,1.064,1.064,0,0,0-.12-.839.123.123,0,0,0-.172-.073l-.356.126c-.041.22-.078.423-.115.626a.34.34,0,0,1-.015.082,1.613,1.613,0,0,1-.451.613c-.207.164-.414.329-.613.5q-.632.544-1.256,1.1c-.207.184-.413.369-.6.569a.378.378,0,0,0-.078.252c0,.185.035.369.054.554.006.053.008.106.011.16l-.038.014L648.882-.3a2.24,2.24,0,0,1-.824.21c-.458.073-.912.173-1.371.239a11.045,11.045,0,0,1-2.411.12c-.411-.031-.819-.1-1.228-.157-.064-.008-.156.028-.188,0-.122-.122-.291-.091-.418-.164l-.159.122c.013-.248-.217-.222-.34-.358.338-.094.648-.17.953-.266a8.708,8.708,0,0,1,.948-.191l.054-.163-.14-.077c.03-.037.047-.077.074-.087a.43.43,0,0,0,.237-.3c.085-.228.165-.457.258-.717-.2.082-.419.023-.567.237-.06-.123-.158-.059-.252-.037q-.166.038-.333.081c-.1.026-.18.126-.3.079-.261.116-.55.121-.819.21a.58.58,0,0,0-.3.156c-.027.033-.126.055-.139.038-.057-.072-.117-.038-.174-.02q-.585.172-1.167.353c-.044.014-.105.037-.12.073-.041.1-.083.118-.177.06-.032-.02-.095,0-.139.016s-.1.059-.15.079c-.224.089-.448.179-.674.259a.409.409,0,0,0-.27.441,4.513,4.513,0,0,1-.036.562.152.152,0,0,1-.068.117c-.127.045-.124.143-.117.244,0,.085.014.17.024.255.078.628.17,1.254.2,1.886a.772.772,0,0,0,.121.5l-.011.035c-.021-.011-.042-.024-.064-.034s-.048-.018-.076-.028c-.023.049-.042.087-.06.126a.56.56,0,0,0,.251.8,3.832,3.832,0,0,0,.527.214c.01,0,.026-.007.043-.011a.271.271,0,0,1,0-.058.535.535,0,0,1,.022-.078c.206.3.47.188.755.161-.245-.189-.282-.2-.47-.2-.011-.124-.118-.159-.2-.222a2.02,2.02,0,0,1-.221-.222l.21-.093-.006.219c.256.025.5.04.743.077a2.277,2.277,0,0,1,.772.219.763.763,0,0,0,.309.075,3.815,3.815,0,0,0,.555,0,15.135,15.135,0,0,0,2.524-.453,23.274,23.274,0,0,0,2.215-.789c.1-.035.116-.1.132-.219.072.169.17.1.258.069.519-.178,1.035-.368,1.558-.534a9.409,9.409,0,0,1,1.094-.285c.292-.055.594-.051.892-.081a1.733,1.733,0,0,0,.259-.071l.068.052c.024-.127-.024-.25.082-.338.152.09.051.223.068.334.3-.021.592-.046.883-.06a.4.4,0,0,0,.36-.193c.087.175.222.123.344.105s.248-.052.372-.08c.166-.036.334-.066.5-.111a.431.431,0,0,0,.313-.267.239.239,0,0,1,.118-.1.942.942,0,0,1,.184-.055A5.5,5.5,0,0,0,655.7.777a2.127,2.127,0,0,0,.339-.258A.2.2,0,0,0,656.1.24c-.034.054-.054.121-.088.13-.117.03-.105-.1-.149-.17a2.41,2.41,0,0,0-.334.108,4.313,4.313,0,0,1-1.61.4.9.9,0,0,1-.163-.032c.1-.062.16-.1.219-.133.21-.12.453-.2.564-.444l.037.007-.01.122c.143-.069.277-.131.408-.2.109-.058.243-.086.287-.233a.117.117,0,0,1,.107-.047c.142.053.247-.029.36-.083.228-.11.459-.217.682-.338a4.452,4.452,0,0,0,.449-.288.444.444,0,0,0,.157-.4c0-.122-.105-.136-.2-.166l.365-.2A.411.411,0,0,0,657.378-2.065ZM652.8.616a5.307,5.307,0,0,0,.044-.534c0-.321-.028-.64-.045-.961,0-.085-.032-.18.091-.2.1-.019.191.068.2.2.006.157,0,.313,0,.47,0,.095.012.188.02.3C652.963.08,653,.384,652.8.616Z" transform="translate(-593.377 21.791)" fill="#090909"/></g><g transform="translate(1563.997 59.303)"><path d="M365.223,7.26l-4.287-6.3,23.35-17.285h-19.41l-4.451-6.564h32.727l4.278,6.3L374.231.691h21.457L400.14,7.26Z" transform="translate(-360.426 22.892)" fill="#090909"/><path d="M418.807,7.259h19.8L424.56-22.886H404.237l4.434,6.551-11,23.594h9.5l10.967-23.581L426.078.69h-11.79Z" transform="translate(-367.296 22.892)" fill="#090909"/><path d="M532.5,7.259,528.112.69H509.506V-4.421H525.49L521.1-10.99h-8.817l-2.78,4.147v-7.629l-2.737-1.85h.8l1.939.007v-.007h27.056l-4.318-6.564H496.955l4.442,6.564h.019V7.259Z" transform="translate(-385.608 22.892)" fill="#090909"/><path d="M571.661-11.139h-18.4a6.036,6.036,0,0,1-2.954-.565,1.966,1.966,0,0,1-.987-1.857,2.279,2.279,0,0,1,1.007-2.182,6.72,6.72,0,0,1,3.137-.564h26.054l-4.483-6.564H550.168v-.009H536.822l4.412,6.519c0,.019-.006.036-.006.054v5.384c0,3.682,3.308,6.353,8.09,6.353h18.4c2.626,0,3.942.847,3.942,2.53A2.272,2.272,0,0,1,570.649.141a6.7,6.7,0,0,1-3.132.564H539.378l4.52,6.569h27.763c4.73,0,8.085-2.806,8.085-6.569V-4.678C579.746-8.436,576.352-11.139,571.661-11.139Z" transform="translate(-392.961 22.891)" fill="#090909"/><path d="M499.314,20.833,481.1-4.6c3.938-.5,6.666-2.994,6.666-6.351V-16.33c0-3.76-3.363-6.563-8.106-6.563H462.609v.008h-4.677v-.008H444.827l4.31,6.348V7.235H457.3v-21.77l-2.67-1.8,2.67.009v0h5.53v0h12.681a6.731,6.731,0,0,1,3.14.564,2.267,2.267,0,0,1,1.014,2.179c0,1.682-1.318,2.528-3.951,2.528H462.959l4.51,6.563h3.624l18.135,25.329Z" transform="translate(-375.993 22.893)" fill="#090909"/><g transform="translate(7.738 34.846)"><path d="M452.213,19.849l.906,1.933h3.094l-1.42,6.944h2.381l1.313-6.42-.671-.526.778,0h3.9l-.92-1.933Z" transform="translate(-385.093 -19.837)" fill="#090909"/><path d="M421.415,19.847H415.02v0h-3.849l.9,1.9c0,.011-.008.021-.011.033l-1.031,5.042c-.225,1.1.635,1.9,1.993,1.9H419.6a2.556,2.556,0,0,0,2.771-1.9l1.031-5.042C423.618,20.722,422.88,19.847,421.415,19.847Zm-1.2,5.881a1.244,1.244,0,0,1-1.378,1.063h-4.257q-1.162,0-.944-1.063l.665-3.249-.893-.7,1.174,0,.1,0H419.8q1.22,0,.987,1.143Z" transform="translate(-377.491 -19.836)" fill="#090909"/><path d="M379.619,23.3H374.2a1.574,1.574,0,0,1-.835-.166.475.475,0,0,1-.179-.547.857.857,0,0,1,.428-.643,2.209,2.209,0,0,1,.957-.166h7.673l-.925-1.934H374v0h-3.93l.907,1.92,0,.016-.325,1.585c-.222,1.085.591,1.872,2,1.872h5.419q1.16,0,1.008.745a.855.855,0,0,1-.429.643,2.206,2.206,0,0,1-.957.166h-7.771l.935,1.935h7.66a2.708,2.708,0,0,0,2.777-1.935l.324-1.585C381.837,24.1,381,23.3,379.619,23.3Z" transform="translate(-369.914 -19.836)" fill="#090909"/><path d="M479.657,23.3h-5.419a1.579,1.579,0,0,1-.836-.166.475.475,0,0,1-.179-.547.859.859,0,0,1,.427-.643,2.215,2.215,0,0,1,.958-.166h7.673l-.925-1.934h-7.323v0H470.1l.906,1.92,0,.016-.324,1.585c-.222,1.085.591,1.872,2,1.872H478.1q1.161,0,1.009.745a.855.855,0,0,1-.43.643,2.2,2.2,0,0,1-.956.166h-7.771l.935,1.935h7.661a2.707,2.707,0,0,0,2.776-1.935l.325-1.585C481.875,24.1,481.039,23.3,479.657,23.3Z" transform="translate(-388.365 -19.836)" fill="#090909"/><path d="M400.941,19.834H395.93v0h-1.374v0h-3.85l.886,1.871-1.428,7.009h2.4l1.307-6.416-.677-.53.785,0h5.35a1.759,1.759,0,0,1,.888.166q.264.165.167.642-.152.744-1.312.745h-3.747l.93,1.935h3.584a2.685,2.685,0,0,0,2.769-1.9l.323-1.585C403.153,20.66,402.334,19.834,400.941,19.834Z" transform="translate(-373.649 -19.834)" fill="#090909"/><path d="M443.261,28.714l-1.776-3.488a2.581,2.581,0,0,0,2.34-1.872l.323-1.585c.226-1.108-.594-1.935-1.987-1.935h-5.011v0h-1.374v0h-3.85l.885,1.871-1.428,7.009h2.4L435.09,22.3l-.677-.53.784,0h5.351a1.762,1.762,0,0,1,.888.166q.264.165.167.642-.152.744-1.313.745h-3.747l.931,1.935h1.065l1.759,3.457Z" transform="translate(-381.252 -19.834)" fill="#090909"/></g></g></g></svg>